<svg width="539.000000" height="434.382935" viewBox="0 0 539 434.383" fill="none" xmlns="http://www.w3.org/2000/svg" xmlns:xlink="http://www.w3.org/1999/xlink">
	<desc>
			Created with Pixso.
	</desc>
	<defs/>
	<path id="Vector" d="M413.9 77.25L291.6 77.25C289.33 77.25 287.16 78.15 285.55 79.76C283.95 81.36 283.05 83.54 283.05 85.81L283.05 160.92L422.44 160.92L422.44 85.81C422.44 83.54 421.54 81.37 419.94 79.76C418.34 78.16 416.16 77.25 413.9 77.25Z" fill="#F5EBDD" fill-opacity="1.000000" fill-rule="nonzero"/>
	<path id="Vector" d="M349.76 64.84C350.54 64.84 351.29 65.15 351.84 65.7C352.39 66.25 352.7 67 352.7 67.78L352.7 115.12C352.7 115.9 352.39 116.64 351.84 117.2C351.29 117.75 350.54 118.06 349.76 118.06L301.92 118.06C301.14 118.06 300.39 117.75 299.84 117.19C299.29 116.64 298.98 115.9 298.98 115.12L298.98 67.77C298.98 67 299.29 66.25 299.84 65.7C300.39 65.15 301.14 64.84 301.92 64.84L349.76 64.84ZM349.76 62.85L301.92 62.85C301.27 62.85 300.63 62.97 300.03 63.22C299.43 63.47 298.89 63.83 298.43 64.29C297.97 64.75 297.6 65.29 297.36 65.89C297.11 66.49 296.98 67.13 296.98 67.78L296.98 115.12C296.98 116.43 297.5 117.68 298.43 118.61C299.35 119.53 300.61 120.05 301.92 120.05L349.76 120.05C351.07 120.05 352.32 119.53 353.25 118.61C354.17 117.68 354.69 116.43 354.69 115.12L354.69 67.77C354.69 66.47 354.17 65.21 353.25 64.29C352.32 63.36 351.07 62.85 349.76 62.85Z" fill="#FFB494" fill-opacity="1.000000" fill-rule="nonzero"/>
	<path id="Vector" d="M425.47 119.87C426.25 119.87 427 120.18 427.55 120.73C428.1 121.28 428.41 122.03 428.41 122.81L428.41 170.15C428.41 170.93 428.1 171.68 427.55 172.23C427 172.78 426.25 173.09 425.47 173.09L377.88 173.09C377.1 173.09 376.35 172.78 375.8 172.23C375.25 171.68 374.93 170.93 374.93 170.15L374.93 122.81C374.93 122.03 375.25 121.28 375.8 120.73C376.35 120.18 377.1 119.87 377.88 119.87L425.47 119.87ZM425.47 117.88L377.88 117.88C376.57 117.88 375.31 118.39 374.39 119.32C373.46 120.25 372.94 121.5 372.94 122.81L372.94 170.15C372.94 171.46 373.46 172.71 374.39 173.64C375.31 174.56 376.57 175.08 377.88 175.08L425.47 175.08C426.78 175.08 428.04 174.56 428.96 173.64C429.89 172.71 430.41 171.46 430.41 170.15L430.41 122.81C430.41 121.5 429.89 120.25 428.96 119.32C428.04 118.39 426.78 117.88 425.47 117.88Z" fill="#FFB494" fill-opacity="1.000000" fill-rule="nonzero"/>
	<path id="Vector" d="M303.59 131.64C304.37 131.64 305.11 131.95 305.66 132.5C306.22 133.05 306.53 133.8 306.53 134.58L306.53 164.95C306.53 165.73 306.22 166.48 305.66 167.03C305.11 167.58 304.37 167.89 303.59 167.89L276.53 167.89C275.75 167.89 275.01 167.58 274.46 167.03C273.9 166.48 273.59 165.73 273.59 164.95L273.59 134.58C273.59 133.8 273.9 133.05 274.46 132.5C275.01 131.95 275.75 131.64 276.53 131.64L303.59 131.64ZM303.59 129.65L276.53 129.65C275.89 129.65 275.25 129.78 274.65 130.02C274.05 130.27 273.5 130.64 273.05 131.09C272.59 131.55 272.22 132.1 271.98 132.69C271.73 133.29 271.6 133.93 271.6 134.58L271.6 164.95C271.6 166.26 272.12 167.51 273.05 168.44C273.97 169.36 275.23 169.88 276.53 169.88L303.59 169.88C304.89 169.88 306.15 169.36 307.07 168.44C308 167.51 308.52 166.26 308.52 164.95L308.52 134.58C308.52 133.93 308.39 133.29 308.14 132.69C307.9 132.1 307.53 131.55 307.07 131.09C306.62 130.64 306.07 130.27 305.47 130.02C304.88 129.78 304.23 129.65 303.59 129.65Z" fill="#FFB494" fill-opacity="1.000000" fill-rule="nonzero"/>
	<path id="Vector" d="M304.19 69.56L347.46 69.56L347.46 99.84L304.19 99.84L304.19 69.56Z" fill="#FFB494" fill-opacity="1.000000" fill-rule="evenodd"/>
	<path id="Vector" d="M331.76 89.63L373.75 89.63C379.94 89.63 384.96 94.65 384.96 100.84L384.96 137.07C384.96 143.26 379.94 148.28 373.75 148.28L331.76 148.28C325.56 148.28 320.54 143.26 320.54 137.07L320.54 100.84C320.54 94.65 325.56 89.63 331.76 89.63Z" fill="#3EC1F3" fill-opacity="1.000000" fill-rule="evenodd"/>
	<path id="Vector" d="M312.33 106.29C311.9 105.85 311.31 105.61 310.7 105.61C310.08 105.61 309.5 105.85 309.06 106.29L308.56 106.78L308.07 106.29C307.63 105.88 307.05 105.66 306.45 105.68C305.85 105.69 305.29 105.93 304.86 106.35C304.44 106.78 304.2 107.35 304.19 107.94C304.17 108.54 304.39 109.12 304.79 109.56L305.29 110.05L308.56 113.33L311.83 110.05L312.33 109.56C312.76 109.12 313.01 108.54 313.01 107.92C313.01 107.31 312.76 106.72 312.33 106.29Z" fill="#FFB494" fill-opacity="1.000000" fill-rule="nonzero"/>
	<path id="Vector" d="M340.86 106.69L356.47 106.69C359.19 106.69 361.4 108.9 361.4 111.63L361.4 126.28C361.4 129 359.19 131.21 356.47 131.21L340.86 131.21C338.13 131.21 335.92 129 335.92 126.28L335.92 111.63C335.92 108.9 338.13 106.69 340.86 106.69Z" fill="#3546AB" fill-opacity="1.000000" fill-rule="evenodd"/>
	<path id="Vector" d="M357.69 120.97L366.71 128.17C367.06 128.44 367.48 128.61 367.92 128.66C368.36 128.71 368.81 128.64 369.21 128.45C369.6 128.25 369.94 127.95 370.18 127.58C370.41 127.2 370.54 126.77 370.54 126.32L370.54 111.93C370.54 111.49 370.41 111.05 370.18 110.68C369.94 110.3 369.6 110 369.21 109.81C368.81 109.62 368.36 109.54 367.92 109.59C367.48 109.64 367.06 109.81 366.71 110.09L357.69 117.29C357.41 117.51 357.19 117.79 357.03 118.11C356.88 118.43 356.8 118.78 356.8 119.13C356.8 119.48 356.88 119.83 357.03 120.15C357.19 120.47 357.41 120.75 357.69 120.97Z" fill="#3546AB" fill-opacity="1.000000" fill-rule="nonzero"/>
	<path id="Vector" d="M420.74 62.85L284.76 62.85C280.48 62.84 276.38 64.54 273.35 67.57C270.32 70.59 268.62 74.69 268.61 78.97L268.61 173.6C268.61 177.88 270.32 181.99 273.34 185.02C276.37 188.04 280.48 189.75 284.76 189.75L420.73 189.75C425.01 189.75 429.12 188.04 432.15 185.02C435.18 181.99 436.88 177.88 436.88 173.6L436.88 78.97C436.87 74.69 435.17 70.59 432.14 67.57C429.12 64.55 425.02 62.85 420.74 62.85ZM422.44 160.92L283.05 160.92L283.05 85.81C283.05 84.68 283.27 83.57 283.7 82.53C284.13 81.49 284.76 80.55 285.56 79.75C286.35 78.96 287.29 78.33 288.33 77.9C289.37 77.47 290.48 77.25 291.61 77.25L413.91 77.25C416.18 77.25 418.36 78.15 419.96 79.75C421.57 81.36 422.47 83.54 422.47 85.81L422.44 160.92Z" fill="#3546AB" fill-opacity="1.000000" fill-rule="nonzero"/>
	<path id="Vector" d="M339.77 169.07L365.73 169.07C368.28 169.07 370.73 170.08 372.53 171.89C374.33 173.69 375.35 176.14 375.35 178.69L375.35 208.02C375.35 210.57 374.33 213.01 372.53 214.81C370.72 216.62 368.28 217.63 365.73 217.63L316.69 217.63C315.8 217.63 314.95 217.27 314.31 216.64C313.68 216.01 313.33 215.16 313.33 214.26C313.33 213.37 313.68 212.51 314.31 211.88C314.95 211.25 315.8 210.9 316.69 210.9L330.13 210.9L330.13 178.69C330.13 177.42 330.38 176.17 330.87 175C331.35 173.84 332.06 172.78 332.96 171.88C333.85 170.99 334.91 170.28 336.08 169.8C337.25 169.32 338.5 169.07 339.77 169.07Z" fill="#3546AB" fill-opacity="1.000000" fill-rule="nonzero"/>
	<path id="Vector" d="M358.76 175.32C358.76 178.64 356.07 181.33 352.75 181.33C349.43 181.33 346.74 178.64 346.74 175.32C346.74 172.01 349.43 169.31 352.75 169.31C356.07 169.31 358.76 172.01 358.76 175.32Z" fill="#3EC1F3" fill-opacity="1.000000" fill-rule="evenodd"/>
	<path id="Vector" d="M354.67 70.03C354.67 71.1 353.81 71.96 352.75 71.96C351.69 71.96 350.83 71.1 350.83 70.03C350.83 68.97 351.69 68.11 352.75 68.11C353.81 68.11 354.67 68.97 354.67 70.03Z" fill="#30242A" fill-opacity="1.000000" fill-rule="evenodd"/>
	<path id="Vector" d="M375.35 190.71L330.05 190.71" stroke="#30242A" stroke-opacity="1.000000" stroke-width="4.000000"/>
	<path id="Vector" d="M213.67 217.63L448.56 217.63C451.2 217.63 453.73 218.68 455.6 220.54C457.46 222.41 458.51 224.94 458.51 227.58L458.51 433.01L203.71 433.01L203.71 227.58C203.71 224.94 204.76 222.41 206.63 220.54C208.5 218.68 211.03 217.63 213.67 217.63Z" fill="#FFB494" fill-opacity="1.000000" fill-rule="nonzero"/>
	<path id="Vector" d="M365.9 241.25L365.9 276.21L227.34 276.21L227.34 241.25L365.9 241.25ZM367.89 239.26L225.35 239.26L225.35 278.2L367.89 278.2L367.89 239.26Z" fill="#A15842" fill-opacity="1.000000" fill-rule="nonzero"/>
	<path id="Vector" d="M302.63 258.73C302.63 262.05 299.94 264.74 296.62 264.74C293.3 264.74 290.61 262.05 290.61 258.73C290.61 255.41 293.3 252.72 296.62 252.72C299.94 252.72 302.63 255.41 302.63 258.73Z" fill="#A15842" fill-opacity="1.000000" fill-rule="evenodd"/>
	<path id="Vector" d="M365.9 301.83L365.9 409.38L227.34 409.38L227.34 301.83L365.9 301.83ZM367.89 299.84L225.35 299.84L225.35 411.37L367.89 411.37L367.89 299.84Z" fill="#A15842" fill-opacity="1.000000" fill-rule="nonzero"/>
	<path id="Vector" d="M281.96 355.6C281.96 358.92 279.26 361.61 275.95 361.61C272.63 361.61 269.94 358.92 269.94 355.6C269.94 352.29 272.63 349.6 275.95 349.6C279.26 349.6 281.96 352.29 281.96 355.6Z" fill="#A15842" fill-opacity="1.000000" fill-rule="evenodd"/>
	<path id="Vector" d="M323.3 355.6C323.3 358.92 320.61 361.61 317.29 361.61C313.98 361.61 311.29 358.92 311.29 355.6C311.29 352.29 313.98 349.6 317.29 349.6C320.61 349.6 323.3 352.29 323.3 355.6Z" fill="#A15842" fill-opacity="1.000000" fill-rule="evenodd"/>
	<path id="Vector" d="M296.98 300.8L296.98 410.41" stroke="#A15842" stroke-opacity="1.000000" stroke-width="4.000000"/>
	<path id="Vector" d="M389.53 239.26L436.88 239.26L436.88 411.37L389.53 411.37L389.53 239.26Z" fill="#A15842" fill-opacity="1.000000" fill-rule="evenodd"/>
	<path id="Vector" d="M436.88 325.32L389.29 325.32" stroke="#FFB494" stroke-opacity="1.000000" stroke-width="4.000000"/>
	<path id="Vector" d="M27.02 217.63L194.12 217.63C196.76 217.63 199.29 218.68 201.16 220.54C203.03 222.41 204.08 224.94 204.08 227.58L204.08 433.01L17.06 433.01L17.06 227.58C17.06 224.94 18.11 222.41 19.98 220.54C21.84 218.68 24.38 217.63 27.02 217.63Z" fill="#3EC1F3" fill-opacity="1.000000" fill-rule="nonzero"/>
	<path id="Vector" d="M45.67 278.2L175.47 278.2L175.47 411.37L45.67 411.37L45.67 278.2Z" fill="#30242A" fill-opacity="1.000000" fill-rule="evenodd"/>
	<path id="Vector" d="M175.47 411.37L45.67 411.37L0 318.11L129.8 318.11L175.47 411.37Z" fill="#3546AB" fill-opacity="1.000000" fill-rule="nonzero"/>
	<path id="Vector" d="M90.86 217.63L45.67 217.63L50.47 207.53L86.05 207.53L90.86 217.63Z" fill="#30242A" fill-opacity="1.000000" fill-rule="nonzero"/>
	<path id="Vector" d="M175.47 217.63L130.28 217.63L135.09 207.53L170.66 207.53L175.47 217.63Z" fill="#30242A" fill-opacity="1.000000" fill-rule="nonzero"/>
	<path id="Vector" d="M63.46 248.15C63.46 253.07 59.47 257.05 54.56 257.05C49.65 257.05 45.67 253.07 45.67 248.15C45.67 243.24 49.65 239.26 54.56 239.26C59.47 239.26 63.46 243.24 63.46 248.15Z" fill="#F5EBDD" fill-opacity="1.000000" fill-rule="evenodd"/>
	<path id="Vector" d="M44.7 248.15L51.92 248.15" stroke="#30242A" stroke-opacity="1.000000" stroke-width="4.000000" stroke-linecap="round"/>
	<path id="Vector" d="M100.79 248.15C100.79 253.07 96.81 257.05 91.9 257.05C86.98 257.05 83 253.07 83 248.15C83 243.24 86.98 239.26 91.9 239.26C96.81 239.26 100.79 243.24 100.79 248.15Z" fill="#F5EBDD" fill-opacity="1.000000" fill-rule="evenodd"/>
	<path id="Vector" d="M91.9 238.3L91.9 245.51" stroke="#30242A" stroke-opacity="1.000000" stroke-width="4.000000" stroke-linecap="round"/>
	<path id="Vector" d="M138.14 248.15C138.14 253.07 134.15 257.05 129.24 257.05C124.33 257.05 120.34 253.07 120.34 248.15C120.34 243.24 124.33 239.26 129.24 239.26C134.15 239.26 138.14 243.24 138.14 248.15Z" fill="#F5EBDD" fill-opacity="1.000000" fill-rule="evenodd"/>
	<path id="Vector" d="M129.24 238.3L129.24 245.51" stroke="#30242A" stroke-opacity="1.000000" stroke-width="4.000000" stroke-linecap="round"/>
	<path id="Vector" d="M175.47 248.15C175.47 253.07 171.49 257.05 166.58 257.05C161.66 257.05 157.68 253.07 157.68 248.15C157.68 243.24 161.66 239.26 166.58 239.26C171.49 239.26 175.47 243.24 175.47 248.15Z" fill="#F5EBDD" fill-opacity="1.000000" fill-rule="evenodd"/>
	<path id="Vector" d="M166.58 238.3L166.58 245.51" stroke="#30242A" stroke-opacity="1.000000" stroke-width="4.000000" stroke-linecap="round"/>
	<path id="Vector" d="M42.9 335.9L110.69 335.9C112.41 335.9 113.81 337.29 113.81 339.02C113.81 340.74 112.41 342.14 110.69 342.14L42.9 342.14C41.18 342.14 39.78 340.74 39.78 339.02C39.78 337.29 41.18 335.9 42.9 335.9Z" fill="#30242A" fill-opacity="1.000000" fill-rule="evenodd"/>
	<path id="Vector" d="M205.16 25.81C196.29 31.51 202.27 43.6 210.44 44.07C213.58 51.39 213.92 59.6 211.41 67.15L223.86 67.15L223.9 61.91C235.28 64.74 239.47 60.27 241.68 56.23C244.17 51.65 243.43 47.37 242.58 41.8C242.58 41.8 246.65 40.18 246.34 37.73C246.09 35.73 241.75 35 241.75 35C241.69 34.13 241.64 33.22 241.62 32.28C241.57 29.78 241.39 27.29 241.07 24.81C231.51 29.9 219.61 32.55 219.61 32.55C219.61 32.55 211.89 21.48 205.16 25.81Z" fill="#A15842" fill-opacity="1.000000" fill-rule="nonzero"/>
	<path id="Vector" d="M353.31 206.98C358.52 208.97 362.36 205.61 361.4 203.68C360.78 202.43 342.74 188.9 324.13 175.15L302.8 201.74C307.7 203.61 310.92 204.68 310.92 204.68C310.92 204.68 316.21 212.84 323.91 217.65C323.91 217.65 332.08 237.36 336.4 236.88C339.31 236.56 335.44 225.34 334.48 220.54C334.48 220.54 344.1 236.88 350.35 236.88C351.79 236.88 353.12 235.89 353.23 233.52C353.23 233.52 356.4 234.39 357.56 232.07C358.06 231.11 358.06 229.67 358.06 228.71C358.06 228.71 360.55 229.4 361.91 227.75C364.2 224.98 359.18 215.83 353.31 206.98Z" fill="#A15842" fill-opacity="1.000000" fill-rule="nonzero"/>
	<path id="Vector" d="M152.76 122.44C152.5 122.22 152.22 121.98 151.91 121.72C152.18 121.96 152.46 122.2 152.76 122.44Z" fill="#FF7235" fill-opacity="1.000000" fill-rule="nonzero"/>
	<path id="Vector" d="M283.05 145.04C283.05 145.04 260.87 93.98 251.8 82.06C242.66 70.03 223.81 70.69 223.81 70.69L223.84 67.15L211.39 67.15C211.39 67.15 224.84 94.07 199.37 105.61C189.76 136.86 159.95 128.69 152.74 122.44C149.85 127.73 135.43 151.28 143.12 169.07C149.85 183.01 173.89 180.13 173.89 180.13L178.7 170.03L239.77 170.03L220.3 170.03L235.93 135.92L241.23 148.88C241.23 148.88 247.98 166.17 262.39 179.65C272.68 189.28 291.91 197.53 302.82 201.71L324.15 175.15C303.92 160.22 283.05 145.04 283.05 145.04Z" fill="#FF7235" fill-opacity="1.000000" fill-rule="nonzero"/>
	<path id="Vector" d="M175.64 148.21L165.73 152.73" stroke="#30242A" stroke-opacity="1.000000" stroke-width="4.000000" stroke-linejoin="round" stroke-linecap="round"/>
	<path id="Vector" d="M179.2 171.96L172.74 128.47" stroke="#30242A" stroke-opacity="1.000000" stroke-width="4.000000" stroke-linejoin="round" stroke-linecap="round"/>
	<path id="Vector" d="M220.3 170.01L239.77 170.03L241.21 148.88L235.93 135.9L220.3 170.01Z" fill="#FFBE21" fill-opacity="1.000000" fill-rule="nonzero"/>
	<path id="Vector" d="M230.7 4.33C225.85 1.62 218.25 -1.07 209.66 1.6C193.92 6.51 190.89 20.14 188.81 29.17C187.37 35.42 185.93 42.61 185.93 42.61C185.93 42.61 159 44.54 161.89 71.94C147.58 75.21 132.58 94.47 144.08 112.88C146.22 116.21 148.86 119.18 151.91 121.7C152.22 121.96 152.5 122.2 152.76 122.42C159.96 128.67 189.77 136.86 199.39 105.59C224.87 94.05 211.41 67.13 211.41 67.13C213.92 59.58 213.58 51.37 210.44 44.05C202.27 43.56 196.29 31.49 205.16 25.79C211.89 21.46 219.59 32.56 219.59 32.56C219.59 32.56 231.5 29.92 241.05 24.83C241.05 24.83 241.05 24.79 241.05 24.77C241.05 24.76 248.71 21.08 250.82 14.25C254.68 1.77 238.81 -4.96 230.7 4.33Z" fill="#FFBE21" fill-opacity="1.000000" fill-rule="nonzero"/>
	<path id="Vector" d="M240.47 149.62C237.74 143.21 233.07 131.84 230.16 122.44" stroke="#30242A" stroke-opacity="1.000000" stroke-width="4.000000" stroke-linejoin="round" stroke-linecap="round"/>
	<path id="Vector" d="M333.79 221.08L332.08 217.15" stroke="#30242A" stroke-opacity="1.000000" stroke-width="4.000000" stroke-linejoin="round" stroke-linecap="round"/>
	<path id="Vector" d="M353.24 233.1C350.12 229.02 343.63 219.89 338.31 212.82" stroke="#30242A" stroke-opacity="1.000000" stroke-width="4.000000" stroke-linejoin="round" stroke-linecap="round"/>
	<path id="Vector" d="M358.72 228.12C354.9 222.5 349.04 213.69 345.06 208.02" stroke="#30242A" stroke-opacity="1.000000" stroke-width="4.000000" stroke-linejoin="round" stroke-linecap="round"/>
	<path id="Vector" d="M354.44 206.76C352.65 204 350.63 201 348.47 197.96" stroke="#30242A" stroke-opacity="1.000000" stroke-width="4.000000" stroke-linejoin="round" stroke-linecap="round"/>
	<path id="Vector" d="M232.01 3.97C233.11 4.75 234.35 5.66 235.44 6.58" stroke="#CA7358" stroke-opacity="1.000000" stroke-width="4.000000" stroke-linejoin="round" stroke-linecap="round"/>
	<path id="Vector" d="M184.71 43.17L183.52 48.88" stroke="#CA7358" stroke-opacity="1.000000" stroke-width="4.000000" stroke-linejoin="round" stroke-linecap="round"/>
	<path id="Vector" d="M160.91 72.84C161.69 76.78 163.16 80.55 165.26 83.98" stroke="#CA7358" stroke-opacity="1.000000" stroke-width="4.000000" stroke-linejoin="round" stroke-linecap="round"/>
	<path id="Vector" d="M223.62 62.85C221.71 62.18 219.87 61.33 218.12 60.32" stroke="#30242A" stroke-opacity="1.000000" stroke-width="4.000000" stroke-linejoin="round" stroke-linecap="round"/>
	<path id="Vector" d="M259 268.51C258.26 269.98 257.13 271.21 255.73 272.07C254.33 272.94 252.71 273.39 251.07 273.39C249.42 273.39 247.81 272.94 246.41 272.07C245.01 271.21 243.88 269.98 243.14 268.51C242.39 269.98 241.26 271.21 239.86 272.07C238.46 272.94 236.85 273.39 235.2 273.39C233.56 273.39 231.95 272.94 230.55 272.07C229.15 271.21 228.01 269.98 227.27 268.51C226.53 269.98 225.4 271.21 224 272.07C222.6 272.94 220.98 273.39 219.34 273.39C217.7 273.39 216.08 272.94 214.68 272.07C213.28 271.21 212.15 269.98 211.41 268.51C211.07 269.17 210.66 269.78 210.17 270.34C223.43 306.09 215.25 323.4 211.41 358.01C210.63 365.35 210.41 372.74 210.74 380.12L256.74 380.12C258.41 365.55 261.85 345.86 263.82 321.44C259.35 321.14 255.18 319.13 252.17 315.82C249.16 312.51 247.55 308.17 247.67 303.69C247.79 299.22 249.64 294.97 252.83 291.84C256.02 288.7 260.3 286.92 264.77 286.87C264.94 286.87 265.1 286.87 265.27 286.87C265.27 282.21 265.12 277.63 264.89 273.15C263.63 272.85 262.45 272.28 261.43 271.48C260.42 270.68 259.59 269.66 259 268.51Z" fill="#F5EBDD" fill-opacity="1.000000" fill-rule="nonzero"/>
	<path id="Vector" d="M195.54 268.51C194.8 269.98 193.67 271.21 192.27 272.07C190.87 272.94 189.26 273.39 187.61 273.39C185.97 273.39 184.35 272.94 182.95 272.07C181.55 271.21 180.42 269.98 179.68 268.51C178.94 269.98 177.8 271.21 176.4 272.07C175 272.94 173.39 273.39 171.75 273.39C170.1 273.39 168.49 272.94 167.09 272.07C165.69 271.21 164.55 269.98 163.81 268.51C163.21 269.7 162.35 270.74 161.29 271.56C160.23 272.37 159 272.93 157.7 273.21C156.39 273.48 155.04 273.45 153.74 273.13C152.45 272.81 151.24 272.2 150.21 271.35C145.73 284.55 140.57 288.81 117.66 323.87C111.65 333.14 106.47 342.93 102.19 353.11L143.51 374.12C152.12 359.76 165.23 342.31 176.16 324.83C172.33 322.59 169.5 318.97 168.27 314.7C167.04 310.43 167.49 305.86 169.54 301.92C171.58 297.98 175.07 294.97 179.27 293.53C183.46 292.09 188.06 292.31 192.09 294.16C195.8 285.35 198.46 277.64 200.13 272.75C198.14 271.94 196.51 270.43 195.54 268.51Z" fill="#F5EBDD" fill-opacity="1.000000" fill-rule="nonzero"/>
	<path id="Vector" d="M204.56 273.32C204.84 273.29 205.13 273.24 205.41 273.19L205.47 273.19C205.73 273.12 206 273.05 206.26 272.96L206.39 272.93C206.66 272.83 206.93 272.72 207.2 272.6L207.23 272.6C207.5 272.47 207.73 272.34 208 272.19L208.05 272.16C208.31 272.01 208.56 271.84 208.8 271.66C209.29 271.29 209.75 270.87 210.15 270.4C210.64 269.84 211.05 269.23 211.39 268.57C212.13 270.04 213.26 271.27 214.66 272.13C216.06 273 217.68 273.45 219.32 273.45C220.96 273.45 222.58 273 223.98 272.13C225.38 271.27 226.51 270.04 227.25 268.57C227.99 270.04 229.13 271.27 230.53 272.13C231.93 273 233.54 273.45 235.18 273.45C236.83 273.45 238.44 273 239.84 272.13C241.24 271.27 242.37 270.04 243.12 268.57C243.86 270.04 244.99 271.27 246.39 272.13C247.79 273 249.4 273.45 251.05 273.45C252.69 273.45 254.31 273 255.71 272.13C257.11 271.27 258.24 270.04 258.98 268.57C259.57 269.72 260.39 270.74 261.41 271.54C262.42 272.34 263.6 272.91 264.86 273.21C264.13 259.71 262.45 246.27 259.83 233.01C256.23 234 252.48 234.25 248.78 233.75C245.09 233.26 241.54 232.02 238.33 230.11C224.54 222.23 221.08 183.67 220.29 170.02L178.72 170.02C154.68 191.65 155.16 256.07 150.59 270.2C150.47 270.59 150.34 270.96 150.21 271.33C151.24 272.19 152.45 272.79 153.74 273.12C155.04 273.44 156.39 273.46 157.7 273.19C159 272.92 160.23 272.35 161.29 271.54C162.35 270.73 163.21 269.69 163.81 268.5C164.55 269.96 165.69 271.2 167.09 272.06C168.49 272.92 170.1 273.38 171.75 273.38C173.39 273.38 175 272.92 176.4 272.06C177.8 271.2 178.94 269.96 179.68 268.5C180.42 269.96 181.55 271.2 182.95 272.06C184.35 272.92 185.97 273.38 187.61 273.38C189.26 273.38 190.87 272.92 192.27 272.06C193.67 271.2 194.8 269.96 195.54 268.5C196.51 270.4 198.13 271.9 200.11 272.72C200.63 272.93 201.16 273.1 201.71 273.22L201.79 273.22C202.02 273.26 202.25 273.29 202.48 273.32L202.67 273.32C202.94 273.32 203.21 273.36 203.47 273.36C203.74 273.36 204.07 273.36 204.36 273.31L204.56 273.32Z" fill="#30242A" fill-opacity="1.000000" fill-rule="nonzero"/>
	<path id="Vector" d="M218.14 426.75L257.56 426.75C257.56 426.75 258.98 417.43 263.97 411.35C260.07 408.53 256.91 405.02 256.12 399.35C255.45 394.5 255.83 388.07 256.74 380.12L210.74 380.12C211.47 395.89 213.95 411.53 218.14 426.75Z" fill="#FF7235" fill-opacity="1.000000" fill-rule="nonzero"/>
	<path id="Vector" d="M88.82 398.38L87.58 397.76C87.45 397.7 87.32 397.64 87.19 397.6L124.09 416.46C124.09 416.46 129.57 408.95 136.62 405.88C135.69 403.95 134.97 401.91 134.49 399.82C133.13 393.85 137.07 384.83 143.5 374.1L102.18 353.1C91.61 378.07 88.82 398.38 88.82 398.38Z" fill="#FF7235" fill-opacity="1.000000" fill-rule="nonzero"/>
	<path id="Vector" d="M218.14 426.75L216.94 426.75C216.51 426.74 216.1 426.8 215.7 426.95C215.31 427.1 214.95 427.33 214.64 427.62C214.34 427.91 214.1 428.26 213.93 428.65C213.77 429.04 213.68 429.46 213.68 429.88C213.68 430.3 213.77 430.71 213.93 431.1C214.1 431.49 214.34 431.84 214.64 432.13C214.95 432.42 215.31 432.65 215.7 432.8C216.1 432.95 216.51 433.02 216.94 433L283.05 433C283.05 420.06 271.97 417.14 263.98 411.35C259 417.43 257.57 426.75 257.57 426.75L218.14 426.75Z" fill="#30242A" fill-opacity="1.000000" fill-rule="nonzero"/>
	<path id="Vector" d="M124.09 416.47L87.19 397.62C86.47 397.36 85.67 397.4 84.97 397.71C84.27 398.02 83.72 398.59 83.42 399.29C83.12 400 83.1 400.8 83.37 401.51C83.64 402.23 84.17 402.82 84.86 403.17L143.6 433.01C149.24 421.32 141.18 415.51 136.6 405.9C129.57 408.97 124.09 416.47 124.09 416.47Z" fill="#30242A" fill-opacity="1.000000" fill-rule="nonzero"/>
	<path id="Vector" d="M247.47 304.16C247.47 308.59 249.16 312.84 252.2 316.06C255.24 319.27 259.4 321.2 263.82 321.44C264.6 311.63 265.15 301.03 265.25 289.74C265.25 288.78 265.25 287.82 265.25 286.87C265.09 286.87 264.93 286.87 264.76 286.87C260.17 286.88 255.78 288.7 252.53 291.94C249.29 295.18 247.47 299.58 247.47 304.16Z" fill="#FFBE21" fill-opacity="1.000000" fill-rule="nonzero"/>
	<path id="Vector" d="M167.66 309.93C167.66 312.94 168.44 315.9 169.93 318.51C171.42 321.12 173.57 323.3 176.16 324.83C177.36 322.91 178.54 320.99 179.68 319.07C184.37 311.06 188.52 302.73 192.07 294.15C189.44 292.97 186.55 292.47 183.67 292.69C180.79 292.91 178.01 293.84 175.59 295.41C173.16 296.98 171.17 299.13 169.79 301.67C168.41 304.2 167.68 307.05 167.68 309.93L167.66 309.93Z" fill="#FFBE21" fill-opacity="1.000000" fill-rule="nonzero"/>
	<path id="Vector" d="M238.33 230.11C241.54 232.01 245.1 233.23 248.8 233.72C252.5 234.2 256.26 233.94 259.85 232.93C252.38 194.86 239.77 170.02 239.77 170.02L220.29 170.02C221.08 183.69 224.54 222.25 238.33 230.11Z" fill="#FFBE21" fill-opacity="1.000000" fill-rule="nonzero"/>
	<path id="Vector" d="M238.34 46.42C237.51 46.84 234.5 46.97 233.5 44.58" stroke="#30242A" stroke-opacity="1.000000" stroke-width="4.000000" stroke-linejoin="round" stroke-linecap="round"/>
	<path id="Vector" d="M237.85 34.46C237.85 35.26 237.2 35.9 236.41 35.9C235.61 35.9 234.96 35.26 234.96 34.46C234.96 33.66 235.61 33.02 236.41 33.02C237.2 33.02 237.85 33.66 237.85 34.46Z" fill="#30242A" fill-opacity="1.000000" fill-rule="evenodd"/>
	<path id="Vector" d="M209.01 33.98L213.81 37.34" stroke="#30242A" stroke-opacity="1.000000" stroke-width="4.000000" stroke-linejoin="round" stroke-linecap="round"/>
	<path id="Vector" d="M178.24 170.03L239.77 170.03" stroke="#30242A" stroke-opacity="1.000000" stroke-width="4.000000" stroke-linecap="round"/>
	<path id="Vector" d="M201.87 189.31C196.98 190.92 196.02 178.89 195.9 171.48C195.9 171.48 207.16 187.57 201.87 189.31Z" stroke="#A15842" stroke-opacity="1.000000" stroke-width="4.000000" stroke-linejoin="round"/>
	<path id="Vector" d="M185.45 183.49C182.63 181.93 189.77 174.86 195.55 171.48C195.55 171.48 189.77 185.91 185.45 183.49Z" stroke="#A15842" stroke-opacity="1.000000" stroke-width="4.000000" stroke-linejoin="round"/>
	<path id="Vector" d="M29.92 167.63L107.33 167.63C109.05 167.63 110.45 169.03 110.45 170.75C110.45 172.48 109.05 173.88 107.33 173.88L29.92 173.88C28.2 173.88 26.8 172.48 26.8 170.75C26.8 169.03 28.2 167.63 29.92 167.63Z" fill="#30242A" fill-opacity="1.000000" fill-rule="evenodd"/>
	<path id="Vector" d="M68.62 169.55C46.03 169.55 35.93 153.21 35.93 153.21L35.93 193.57C35.94 197.26 37.41 200.81 40.02 203.42C42.64 206.03 46.18 207.5 49.87 207.51L87.32 207.51C91.02 207.51 94.57 206.04 97.19 203.43C99.81 200.81 101.28 197.27 101.29 193.57L101.29 153.21C101.29 153.21 91.22 169.55 68.62 169.55Z" fill="#FFB494" fill-opacity="1.000000" fill-rule="nonzero"/>
	<path id="Vector" d="M68.62 169.55C91.22 169.55 101.31 153.21 101.31 153.21L35.93 153.21C35.93 153.21 46.03 169.55 68.62 169.55Z" fill="#A15842" fill-opacity="1.000000" fill-rule="nonzero"/>
	<path id="Vector" d="M75.35 147.2C75.35 150.52 72.66 153.21 69.34 153.21C66.02 153.21 63.33 150.52 63.33 147.2C63.33 143.88 66.02 141.19 69.34 141.19C72.66 141.19 75.35 143.88 75.35 147.2Z" fill="#30242A" fill-opacity="1.000000" fill-rule="evenodd"/>
	<path id="Vector" d="M78.72 106.81C78.72 111.73 74.74 115.71 69.82 115.71C64.91 115.71 60.93 111.73 60.93 106.81C60.93 101.9 64.91 97.92 69.82 97.92C74.74 97.92 78.72 101.9 78.72 106.81Z" fill="#F5EBDD" fill-opacity="1.000000" fill-rule="evenodd"/>
	<path id="Vector" d="M83.08 75.93C83.08 83.16 77.21 89.03 69.98 89.03C62.74 89.03 56.88 83.16 56.88 75.93C56.88 68.69 62.74 62.83 69.98 62.83C77.21 62.83 83.08 68.69 83.08 75.93Z" fill="#F5EBDD" fill-opacity="1.000000" fill-rule="evenodd"/>
	<path id="Vector" d="M507.07 315.24C507.07 315.24 502.49 325.54 490.49 325.54C478.48 325.54 473.91 315.24 473.91 315.24C473.91 315.24 440.18 392.43 473.34 433.03L507.65 433.03C540.81 392.4 507.07 315.24 507.07 315.24Z" fill="#3EC1F3" fill-opacity="1.000000" fill-rule="nonzero"/>
	<path id="Vector" d="M490.49 325.52C502.5 325.52 507.07 315.22 507.07 315.22L473.91 315.22C473.91 315.22 478.49 325.52 490.49 325.52Z" fill="#30242A" fill-opacity="1.000000" fill-rule="nonzero"/>
	<path id="Vector" d="M521.51 383.94C502.84 384.27 480.78 391.01 463.76 414.8" stroke="#F5EBDD" stroke-opacity="1.000000" stroke-width="4.000000" stroke-linejoin="round" stroke-linecap="round"/>
	<path id="Vector" d="M460.77 365.02C473.3 361.97 497.02 359.05 520.01 364.52" stroke="#F5EBDD" stroke-opacity="1.000000" stroke-width="4.000000" stroke-linejoin="round" stroke-linecap="round"/>
	<path id="Vector" d="M519.9 403.76C511.55 403.85 496.12 413.31 497.82 432.38" stroke="#F5EBDD" stroke-opacity="1.000000" stroke-width="4.000000" stroke-linejoin="round" stroke-linecap="round"/>
	<path id="Vector" d="M500.83 239.76L491.65 320.03" stroke="#30242A" stroke-opacity="1.000000" stroke-width="4.000000"/>
	<path id="Vector" d="M505.27 272.01L493.73 319.38" stroke="#30242A" stroke-opacity="1.000000" stroke-width="4.000000"/>
	<path id="Vector" d="M464.58 281.47C474.8 285.84 482.24 291.37 481.19 293.82C480.14 296.27 471.01 294.72 460.78 290.34C450.56 285.97 443.12 280.44 444.17 277.99C445.22 275.54 454.35 277.1 464.58 281.47Z" fill="#30242A" fill-opacity="1.000000" fill-rule="evenodd"/>
	<path id="Vector" d="M537.36 286.36C538.26 288.76 530.25 294 519.46 298.07C508.68 302.13 499.2 303.49 498.3 301.09C497.39 298.7 505.41 293.46 516.19 289.39C526.98 285.32 536.46 283.97 537.36 286.36Z" fill="#30242A" fill-opacity="1.000000" fill-rule="evenodd"/>
	<path id="Vector" d="M488.93 271.38C494.17 275.18 497.48 279.57 496.31 281.17C495.15 282.78 489.96 281 484.71 277.2C479.47 273.4 476.17 269.01 477.33 267.41C478.49 265.8 483.69 267.58 488.93 271.38Z" fill="#30242A" fill-opacity="1.000000" fill-rule="evenodd"/>
	<path id="Vector" d="M467.21 252.88L489.77 320.03" stroke="#30242A" stroke-opacity="1.000000" stroke-width="4.000000"/>
	<path id="Vector" d="M496.24 257.36C497.13 255.42 498.48 253.73 500.16 252.42C501.84 251.12 503.81 250.23 505.91 249.85C508 249.46 510.16 249.59 512.19 250.21C514.23 250.84 516.09 251.94 517.61 253.44C519.13 254.93 520.27 256.76 520.93 258.79C521.59 260.81 521.75 262.97 521.4 265.07C521.06 267.17 520.21 269.16 518.93 270.86C517.66 272.57 515.99 273.94 514.07 274.87C512.92 270.63 510.66 266.77 507.53 263.7C504.4 260.62 500.5 258.43 496.24 257.36Z" fill="#FF7235" fill-opacity="1.000000" fill-rule="nonzero"/>
	<path id="Vector" d="M503.19 264.87C504.98 259.12 508.8 254.22 513.93 251.08" stroke="#F5EBDD" stroke-opacity="1.000000" stroke-width="4.000000" stroke-linecap="round"/>
	<path id="Vector" d="M505.4 266.63C509.08 261.84 514.4 258.56 520.34 257.43" stroke="#F5EBDD" stroke-opacity="1.000000" stroke-width="4.000000" stroke-linecap="round"/>
	<path id="Vector" d="M514.07 274.87C511.61 276.05 508.84 276.45 506.14 276.01C503.44 275.56 500.95 274.29 499 272.38C497.05 270.46 495.74 267.99 495.25 265.31C494.75 262.62 495.1 259.84 496.24 257.36C500.5 258.43 504.4 260.62 507.53 263.7C510.66 266.77 512.92 270.63 514.07 274.87Z" fill="#FF7235" fill-opacity="1.000000" fill-rule="nonzero"/>
	<path id="Vector" d="M475.86 238.13C474.77 236.31 473.24 234.77 471.43 233.65C469.61 232.54 467.55 231.87 465.43 231.72C463.3 231.57 461.17 231.93 459.21 232.78C457.26 233.62 455.53 234.92 454.18 236.58C452.84 238.23 451.91 240.18 451.48 242.27C451.04 244.36 451.12 246.52 451.7 248.57C452.28 250.62 453.34 252.5 454.8 254.06C456.26 255.61 458.07 256.79 460.09 257.49C460.76 253.16 462.58 249.08 465.35 245.68C468.12 242.28 471.75 239.67 475.86 238.13Z" fill="#FF7235" fill-opacity="1.000000" fill-rule="nonzero"/>
	<path id="Vector" d="M469.79 246.37C467.37 240.85 463.04 236.4 457.58 233.85" stroke="#F5EBDD" stroke-opacity="1.000000" stroke-width="4.000000" stroke-linecap="round"/>
	<path id="Vector" d="M467.79 248.36C463.59 244.01 457.94 241.35 451.91 240.9" stroke="#F5EBDD" stroke-opacity="1.000000" stroke-width="4.000000" stroke-linecap="round"/>
	<path id="Vector" d="M460.09 257.49C462.66 258.4 465.46 258.49 468.09 257.75C470.72 257.01 473.06 255.47 474.79 253.35C476.51 251.23 477.54 248.63 477.74 245.9C477.93 243.17 477.27 240.45 475.86 238.11C471.75 239.65 468.12 242.26 465.35 245.67C462.57 249.07 460.76 253.15 460.09 257.49Z" fill="#FF7235" fill-opacity="1.000000" fill-rule="nonzero"/>
	<path id="Vector" d="M513.54 232.24C513.59 230.11 513.12 228 512.19 226.09C511.25 224.18 509.86 222.52 508.15 221.26C506.43 219.99 504.44 219.16 502.34 218.83C500.23 218.5 498.08 218.67 496.06 219.35C494.04 220.02 492.21 221.18 490.73 222.71C489.25 224.24 488.16 226.1 487.55 228.14C486.94 230.18 486.83 232.34 487.23 234.43C487.63 236.52 488.52 238.49 489.84 240.16C492.73 236.85 496.45 234.38 500.62 232.99C504.78 231.59 509.24 231.34 513.54 232.24Z" fill="#FF7235" fill-opacity="1.000000" fill-rule="nonzero"/>
	<path id="Vector" d="M504.01 235.94C504.92 229.99 503.64 223.91 500.4 218.83" stroke="#F5EBDD" stroke-opacity="1.000000" stroke-width="4.000000" stroke-linecap="round"/>
	<path id="Vector" d="M501.26 236.56C500.04 230.63 496.7 225.35 491.85 221.74" stroke="#F5EBDD" stroke-opacity="1.000000" stroke-width="4.000000" stroke-linecap="round"/>
	<path id="Vector" d="M489.85 240.16C491.54 242.3 493.86 243.87 496.47 244.65C499.09 245.43 501.89 245.39 504.48 244.52C507.07 243.65 509.33 242.01 510.95 239.81C512.57 237.62 513.48 234.97 513.54 232.24C509.25 231.34 504.79 231.6 500.62 232.99C496.46 234.38 492.74 236.86 489.85 240.16Z" fill="#FF7235" fill-opacity="1.000000" fill-rule="nonzero"/>
	<path id="Vector" d="M476.36 238.63C472.25 240.17 468.62 242.77 465.85 246.17C463.08 249.58 461.26 253.66 460.58 257.99" stroke="#F5EBDD" stroke-opacity="1.000000" stroke-width="4.000000" stroke-linecap="round"/>
	<path id="Vector" d="M513.78 232.24C509.51 231.22 505.04 231.36 500.84 232.64C496.64 233.92 492.86 236.29 489.88 239.52" stroke="#F5EBDD" stroke-opacity="1.000000" stroke-width="4.000000" stroke-linecap="round"/>
	<path id="Vector" d="M515.39 273.85C514.04 269.67 511.61 265.92 508.34 262.99C505.07 260.06 501.08 258.05 496.78 257.18" stroke="#F5EBDD" stroke-opacity="1.000000" stroke-width="4.000000" stroke-linecap="round"/>
</svg>
