<svg width="540.000000" height="433.086182" viewBox="0 0 540 433.086" fill="none" xmlns="http://www.w3.org/2000/svg" xmlns:xlink="http://www.w3.org/1999/xlink">
	<desc>
			Created with Pixso.
	</desc>
	<defs/>
	<path id="Vector" d="M85.41 231.62L97.18 231.62L97.18 431.56L85.41 431.56L85.41 231.62Z" fill="#FFBE21" fill-opacity="1.000000" fill-rule="evenodd"/>
	<path id="Vector" d="M97.18 234.37L85.41 234.37" stroke="#A15842" stroke-opacity="1.000000" stroke-width="4.000000"/>
	<path id="Vector" d="M32.03 391.44C33.22 388.02 35.45 385.06 38.4 382.97C41.35 380.87 44.88 379.74 48.5 379.74C52.12 379.74 55.65 380.87 58.6 382.97C61.55 385.06 63.77 388.02 64.97 391.44C66.1 388.18 68.18 385.33 70.95 383.25C73.71 381.17 77.02 379.96 80.47 379.77C78.93 377.02 77.1 374.45 75 372.1L68.67 364.98C66.7 362.77 65.46 360 65.12 357.06C64.78 354.12 65.35 351.14 66.75 348.54L72.13 338.55C70.62 340.07 61.9 348.24 48.66 348.24C35.42 348.24 26.7 340.07 25.19 338.55L25.16 338.55L30.54 348.54C31.94 351.15 32.5 354.13 32.15 357.07C31.8 360.01 30.55 362.78 28.57 364.98L22.24 372.08C20.14 374.42 18.3 376.99 16.76 379.74C20.17 379.98 23.44 381.21 26.15 383.29C28.87 385.37 30.91 388.21 32.03 391.44Z" fill="#3546AB" fill-opacity="1.000000" fill-rule="nonzero"/>
	<path id="Vector" d="M81.43 401.53C77.81 401.53 74.28 402.66 71.33 404.76C68.38 406.86 66.16 409.82 64.97 413.24C63.78 409.82 61.55 406.86 58.6 404.76C55.65 402.66 52.12 401.53 48.5 401.53C44.88 401.53 41.35 402.66 38.4 404.76C35.45 406.86 33.22 409.82 32.03 413.24C30.59 409.11 27.65 405.67 23.79 403.6C19.94 401.53 15.44 400.99 11.21 402.08C11.45 413.14 15.9 423.68 23.66 431.56L73.56 431.56C81.3 423.7 85.76 413.18 86.02 402.15C84.52 401.74 82.98 401.53 81.43 401.53Z" fill="#3546AB" fill-opacity="1.000000" fill-rule="nonzero"/>
	<path id="Vector" d="M48.62 348.26C61.86 348.26 70.58 340.09 72.09 338.57L25.15 338.57C26.66 340.07 35.38 348.26 48.62 348.26Z" fill="#30242A" fill-opacity="1.000000" fill-rule="nonzero"/>
	<path id="Vector" d="M32.03 413.24C33.22 409.82 35.45 406.86 38.4 404.76C41.35 402.66 44.88 401.53 48.5 401.53C52.12 401.53 55.65 402.66 58.6 404.76C61.55 406.86 63.78 409.82 64.97 413.24C66.42 409.06 69.4 405.6 73.32 403.54C77.23 401.48 81.78 400.98 86.04 402.15C86.24 394.33 84.32 386.59 80.48 379.77C77.03 379.96 73.72 381.17 70.95 383.25C68.19 385.33 66.11 388.18 64.98 391.44C63.78 388.02 61.56 385.06 58.61 382.97C55.66 380.87 52.13 379.74 48.51 379.74C44.89 379.74 41.36 380.87 38.41 382.97C35.46 385.06 33.23 388.02 32.04 391.44C30.92 388.22 28.87 385.39 26.15 383.32C23.44 381.25 20.17 380.02 16.77 379.78C12.95 386.58 11.03 394.29 11.21 402.08C15.45 400.99 19.95 401.53 23.8 403.6C27.66 405.67 30.6 409.11 32.04 413.24L32.03 413.24Z" fill="#3EC1F3" fill-opacity="1.000000" fill-rule="nonzero"/>
	<path id="Vector" d="M52.1 346.89C53.05 341.02 57.41 317.78 68.36 305.15" stroke="#30242A" stroke-opacity="1.000000" stroke-width="4.000000" stroke-linecap="round"/>
	<path id="Vector" d="M47.04 347.05C46.97 340.4 46.29 307.7 39.79 288.2" stroke="#30242A" stroke-opacity="1.000000" stroke-width="4.000000" stroke-linecap="round"/>
	<path id="Vector" d="M91.51 312.62C92.46 314.78 85.45 319.95 75.85 324.18C66.25 328.4 57.7 330.08 56.75 327.92C55.8 325.76 62.81 320.58 72.41 316.36C82.01 312.13 90.56 310.46 91.51 312.62Z" fill="#30242A" fill-opacity="1.000000" fill-rule="evenodd"/>
	<path id="Vector" d="M79.15 254.13C80.78 255.33 79.3 260.09 75.85 264.75C72.39 269.42 68.28 272.23 66.65 271.02C65.02 269.82 66.5 265.06 69.95 260.4C73.41 255.73 77.52 252.92 79.15 254.13Z" fill="#30242A" fill-opacity="1.000000" fill-rule="evenodd"/>
	<path id="Vector" d="M45.92 320.07C46.26 322.28 36.38 325.6 23.87 327.5C11.35 329.39 0.93 329.13 0.6 326.92C0.27 324.71 10.14 321.39 22.66 319.49C35.17 317.6 45.59 317.86 45.92 320.07Z" fill="#30242A" fill-opacity="1.000000" fill-rule="evenodd"/>
	<path id="Vector" d="M15.12 294.85L15.12 294.88C16.97 295.92 18.37 297.6 19.03 299.62C19.7 301.63 19.59 303.82 18.72 305.75C17.85 307.68 16.29 309.22 14.34 310.06C12.4 310.9 10.21 310.98 8.21 310.28L8.21 310.31C18.7 315.02 28.76 315.38 30.68 311.12C32.59 306.85 25.62 299.56 15.12 294.85Z" fill="#FF7235" fill-opacity="1.000000" fill-rule="nonzero"/>
	<path id="Vector" d="M46.14 260.69C43.91 260.11 41 263.49 38.88 268.71C36.33 262.36 32.63 258.12 30.13 258.94C27.63 259.76 27.19 265.38 28.92 272C24.1 269.07 19.76 268.08 18.31 269.87C16.46 272.16 20.02 278.1 26.27 283.15C28.05 284.6 29.96 285.87 31.98 286.95C32.32 285.58 33 284.32 33.96 283.28C34.91 282.25 36.11 281.46 37.45 281.01C38.78 280.55 40.21 280.43 41.6 280.67C42.99 280.9 44.3 281.48 45.41 282.35C46.35 280.34 47.1 278.24 47.65 276.09C49.66 268.32 48.99 261.43 46.14 260.69Z" fill="#FF7235" fill-opacity="1.000000" fill-rule="nonzero"/>
	<path id="Vector" d="M94.83 295.95C94.14 293.74 89.74 293.07 84.18 294.03C88.22 288.51 89.86 283.12 87.85 281.44C85.83 279.76 80.83 282.35 76.12 287.31C76.06 281.67 74.6 277.47 72.31 277.18C69.4 276.82 66.24 282.99 65.26 290.95C64.97 293.23 64.9 295.53 65.05 297.82C66.39 297.39 67.82 297.29 69.21 297.56C70.6 297.82 71.9 298.42 72.99 299.31C74.09 300.2 74.94 301.35 75.48 302.66C76.02 303.97 76.22 305.39 76.06 306.79C78.27 306.51 80.45 306.03 82.56 305.35C90.21 302.97 95.71 298.75 94.83 295.95Z" fill="#FF7235" fill-opacity="1.000000" fill-rule="nonzero"/>
	<path id="Vector" d="M73.06 299.36C71.96 298.45 70.65 297.82 69.25 297.55C67.85 297.28 66.41 297.37 65.05 297.8C65.32 301.59 66.28 304.51 67.72 305.57C69.07 306.81 72.18 307.23 76.06 306.78C76.21 305.39 76.01 303.99 75.49 302.69C74.96 301.4 74.13 300.25 73.06 299.36Z" fill="#30242A" fill-opacity="1.000000" fill-rule="nonzero"/>
	<path id="Vector" d="M37.54 280.98C36.18 281.42 34.96 282.21 33.99 283.25C33.02 284.29 32.33 285.57 31.98 286.95C35.33 288.72 38.31 289.44 39.99 288.79C41.75 288.31 43.75 285.88 45.41 282.35C44.32 281.49 43.02 280.91 41.65 280.67C40.27 280.43 38.86 280.54 37.54 280.98Z" fill="#30242A" fill-opacity="1.000000" fill-rule="nonzero"/>
	<path id="Vector" d="M16.06 309.07C15.16 308.57 14.48 307.75 14.15 306.77C13.83 305.79 13.89 304.72 14.31 303.78C14.74 302.84 15.5 302.1 16.45 301.69C17.4 301.29 18.46 301.25 19.43 301.6C19.32 300.21 18.87 298.88 18.12 297.71C17.37 296.54 16.34 295.57 15.12 294.89L8.19 310.28C9.5 310.74 10.9 310.87 12.28 310.66C13.65 310.45 14.95 309.9 16.06 309.07Z" fill="#F5EBDD" fill-opacity="1.000000" fill-rule="nonzero"/>
	<path id="Vector" d="M14.29 303.79C13.88 304.73 13.83 305.79 14.15 306.76C14.48 307.74 15.16 308.56 16.06 309.06C17.21 308.2 18.12 307.06 18.71 305.76C19.3 304.45 19.55 303.01 19.43 301.58C18.46 301.24 17.39 301.27 16.43 301.68C15.48 302.09 14.72 302.84 14.29 303.79Z" fill="#4856DF" fill-opacity="1.000000" fill-rule="nonzero"/>
	<path id="Vector" d="M330.84 311.52L209.02 311.52L211.08 303.35L264.55 303.35L284.95 223.59C287.72 212.72 294.04 203.09 302.9 196.21C311.76 189.34 322.65 185.6 333.86 185.6C361.31 185.6 381.38 211.47 374.58 238.05L361.98 287.33C360.21 294.25 356.19 300.38 350.55 304.76C344.91 309.14 337.98 311.52 330.84 311.52Z" fill="#FFB494" fill-opacity="1.000000" fill-rule="nonzero"/>
	<path id="Vector" d="M209.96 395.65L209.96 387L287.6 387L287.6 395.65L209.96 395.65Z" fill="#A15842" fill-opacity="1.000000" fill-rule="evenodd"/>
	<path id="Vector" d="M300.39 426.91L280.19 306.71L217.36 306.71L197.17 426.91C197.07 427.49 197.1 428.07 197.26 428.63C197.41 429.19 197.68 429.71 198.06 430.15C198.43 430.59 198.9 430.95 199.43 431.19C199.95 431.44 200.52 431.56 201.1 431.56C202.01 431.56 202.9 431.25 203.61 430.68C204.32 430.11 204.81 429.31 205 428.42L231.45 306.71L266.12 306.71L292.56 428.42C292.76 429.31 293.25 430.11 293.96 430.68C294.67 431.25 295.55 431.56 296.46 431.56C297.04 431.56 297.61 431.43 298.14 431.19C298.66 430.94 299.13 430.59 299.5 430.15C299.87 429.7 300.15 429.19 300.3 428.63C300.45 428.07 300.48 427.49 300.39 426.91Z" fill="#A15842" fill-opacity="1.000000" fill-rule="nonzero"/>
	<path id="Vector" d="M274.28 395.65L274.28 387L351.92 387L351.92 395.65L274.28 395.65Z" fill="#FFBE21" fill-opacity="1.000000" fill-rule="evenodd"/>
	<path id="Vector" d="M364.71 426.91L344.49 306.71L281.68 306.71L261.49 426.91C261.39 427.49 261.42 428.07 261.58 428.63C261.73 429.19 262.01 429.71 262.38 430.15C262.76 430.59 263.22 430.95 263.75 431.19C264.27 431.44 264.85 431.56 265.43 431.56C266.34 431.56 267.22 431.25 267.93 430.68C268.64 430.11 269.13 429.31 269.32 428.42L295.76 306.71L330.43 306.71L356.87 428.42C357.07 429.31 357.56 430.11 358.27 430.68C358.98 431.25 359.87 431.56 360.78 431.56C361.36 431.56 361.93 431.43 362.45 431.19C362.98 430.94 363.44 430.59 363.82 430.15C364.19 429.7 364.46 429.19 364.62 428.63C364.77 428.07 364.8 427.49 364.71 426.91Z" fill="#FFBE21" fill-opacity="1.000000" fill-rule="nonzero"/>
	<path id="Vector" d="M301.25 287.33L308.95 257.21L257.9 257.21C247.89 257.21 238.17 260.54 230.26 266.68C222.35 272.82 216.71 281.42 214.23 291.11L209.02 311.52L270.1 311.52C277.24 311.52 284.18 309.14 289.82 304.76C295.46 300.38 299.48 294.25 301.25 287.33Z" fill="#FFB494" fill-opacity="1.000000" fill-rule="nonzero"/>
	<path id="Vector" d="M212.34 302.55L277.14 302.55" stroke="#A15842" stroke-opacity="1.000000" stroke-width="4.000000" stroke-linejoin="round" stroke-linecap="round"/>
	<path id="Vector" d="M264.78 302.24L276.14 257.84" stroke="#A15842" stroke-opacity="1.000000" stroke-width="4.000000" stroke-linejoin="round" stroke-linecap="round"/>
	<path id="Vector" d="M368.92 256.18L338.27 256.18" stroke="#A15842" stroke-opacity="1.000000" stroke-width="4.000000" stroke-linejoin="round" stroke-linecap="round"/>
	<path id="Vector" d="M374.67 234.63L335.39 234.63" stroke="#A15842" stroke-opacity="1.000000" stroke-width="4.000000" stroke-linejoin="round" stroke-linecap="round"/>
	<path id="Vector" d="M231.6 224.89C231.6 224.89 193.17 235.36 176.85 243.53C149.93 256.98 150.03 265.86 133.62 315.57C118.46 361.52 116.8 383.79 95.9 384.67C79.94 385.34 74.71 390.56 72.13 397.72L135.26 427.67C135.99 428.01 136.81 428.07 137.58 427.82C138.34 427.57 138.97 427.04 139.36 426.34C139.75 425.62 139.84 424.78 139.62 423.99C139.4 423.2 138.88 422.53 138.17 422.12L136.85 421.36C142.72 414.25 154.03 399.1 165.32 376.1L172.5 379.45C172.5 379.45 184.11 364.37 185.95 347.26C188.34 325.16 186.91 310.27 197 301.63L314.69 224.87L231.6 224.89Z" fill="#FF7235" fill-opacity="1.000000" fill-rule="nonzero"/>
	<path id="Vector" d="M89.7 388.22C90.95 385.62 97.89 369.77 101.89 371.69C107.08 374.18 93.6 390.09 93.6 390.09L89.7 388.22Z" fill="#30242A" fill-opacity="1.000000" fill-rule="nonzero"/>
	<path id="Vector" d="M72.12 397.94L135.26 427.89C135.99 428.24 136.83 428.29 137.6 428.04C138.36 427.78 139 427.24 139.38 426.52C139.76 425.8 139.84 424.97 139.62 424.19C139.39 423.41 138.87 422.75 138.17 422.35L136.84 421.58L136.98 421.42L93.58 400.93C94.23 399.13 94.69 397.27 94.94 395.37C101.44 396.49 114.58 397.71 114.65 392.29C114.72 387.24 100.36 389.27 95.12 390.69C95.01 388.75 94.63 386.84 94 385C79.53 386 74.6 391.07 72.12 397.94Z" fill="#30242A" fill-opacity="1.000000" fill-rule="nonzero"/>
	<path id="Vector" d="M176.85 243.53C173.83 245.03 171.15 246.49 168.75 247.94L165.07 259.74L179.24 249.75L192.31 260.18L187.5 245.89L202.3 239.1L190.86 237.67C186.09 239.37 181.41 241.33 176.85 243.53Z" fill="#FFB494" fill-opacity="1.000000" fill-rule="nonzero"/>
	<path id="Vector" d="M218.62 237.39L217.66 243.63L223.91 241.23L218.62 237.39Z" fill="#FFB494" fill-opacity="1.000000" fill-rule="nonzero"/>
	<path id="Vector" d="M182.6 268.6L173.47 280.61L160.5 274.37L168.18 287.34L156.17 297.43L171.55 295.51L176.83 313.28L182.12 295.51L198.93 290.7L182.6 283.98L182.6 268.6Z" fill="#FFB494" fill-opacity="1.000000" fill-rule="nonzero"/>
	<path id="Vector" d="M131.3 360.29L132.42 357.09L147.75 356.28L135.29 347.8L140.84 334.52L128.29 342.88L125.9 340.3C123.98 346.6 122.29 352.22 120.63 357.16L120.71 357.16C120.89 356.62 121.07 356.07 121.25 355.52L131.3 360.29Z" fill="#FFB494" fill-opacity="1.000000" fill-rule="nonzero"/>
	<path id="Vector" d="M131.3 360.29L121.24 355.54C121.06 356.09 120.87 356.64 120.69 357.18C114.61 375.29 109.08 384.34 95.91 384.89C95.26 384.89 94.64 384.96 94.03 385C94.66 386.84 95.03 388.75 95.15 390.69C100.42 389.26 114.75 387.24 114.68 392.29C114.6 397.71 101.47 396.49 94.97 395.37C94.71 397.27 94.25 399.13 93.6 400.93L136.99 421.42C142.89 414.24 154.12 399.17 165.31 376.35L131.3 360.29Z" fill="#EAA58B" fill-opacity="1.000000" fill-rule="nonzero"/>
	<path id="Vector" d="M169.63 323.85L168.19 336.82L154.74 336.34L166.27 344.99L161.96 360.36L173.5 350.27L183.87 357.18C184.15 356.27 184.42 355.34 184.66 354.4L180.68 344.5L186.84 337.75C186.94 336.5 187.04 335.26 187.13 334.06L176.37 335.85L169.63 323.85Z" fill="#FFB494" fill-opacity="1.000000" fill-rule="nonzero"/>
	<path id="Vector" d="M139.66 296.88C138.45 300.63 137.15 304.7 135.71 309.12L148.49 309.9L139.66 296.88Z" fill="#FFB494" fill-opacity="1.000000" fill-rule="nonzero"/>
	<path id="Vector" d="M184.79 413.9C184.99 411.03 185.62 393.74 190.03 394.05C195.78 394.45 189.1 414.2 189.1 414.2L184.79 413.9Z" fill="#30242A" fill-opacity="1.000000" fill-rule="nonzero"/>
	<path id="Vector" d="M291.17 225.6C291.17 225.6 243.13 234.51 216.71 245.55C190.03 256.71 190.29 276.52 195.09 330.33C199.4 378.51 207.11 401.9 191.26 409.11C176.73 415.72 171.68 424 172.37 431.58L243.91 431.58C244.31 431.58 244.71 431.5 245.08 431.35C245.45 431.19 245.79 430.97 246.08 430.68C246.36 430.4 246.59 430.06 246.74 429.68C246.9 429.31 246.98 428.91 246.98 428.51C246.98 427.7 246.65 426.91 246.08 426.34C245.5 425.76 244.72 425.44 243.91 425.44L242.7 425.44C244.96 418.06 248.23 403.65 248.68 379.81L257.55 379.81C257.55 379.81 262.11 358.73 257.07 339.94C251.8 320.24 246.98 316.88 244.1 303.43L287.15 303.43C320.02 303.43 344.63 273.03 337.48 240.94C335.24 230.92 332.01 225.62 332.01 225.62L291.17 225.6Z" fill="#FF7235" fill-opacity="1.000000" fill-rule="nonzero"/>
	<path id="Vector" d="M261.38 253.71L252.57 264.81L238.83 260.09L246.97 273.41L236.41 287.82L250.33 282.06L258.1 296.37L258.98 280.61L272.43 277.73L260.91 270.53L261.38 253.71Z" fill="#FFB494" fill-opacity="1.000000" fill-rule="nonzero"/>
	<path id="Vector" d="M242.2 339.35L250.34 352.67L239.77 367.08L253.7 361.33L258.86 370.85C259.62 363.45 260 352.51 257.58 342.01L255.93 344.08L242.2 339.35Z" fill="#FFB494" fill-opacity="1.000000" fill-rule="nonzero"/>
	<path id="Vector" d="M206.28 379.79L205.66 372.36L221.26 366.35L206.5 363.29L208.13 347.08L198.55 359.62L198.26 359.5C199.18 367.23 199.98 373.99 200.43 379.84L200.43 379.79L206.28 379.79Z" fill="#FFB494" fill-opacity="1.000000" fill-rule="nonzero"/>
	<path id="Vector" d="M243.91 425.42L242.7 425.42C244.96 418.04 248.23 403.63 248.68 379.79L200.42 379.79L200.42 379.83C200.46 380.31 200.49 380.79 200.52 381.27C200.52 381.31 200.52 381.36 200.52 381.4C201.53 396.37 199.89 405.13 191.24 409.06C176.71 415.67 171.66 423.95 172.35 431.53L243.91 431.53C244.72 431.53 245.5 431.21 246.08 430.63C246.65 430.06 246.98 429.28 246.98 428.46C246.98 427.65 246.65 426.87 246.08 426.29C245.5 425.71 244.72 425.39 243.91 425.39L243.91 425.42Z" fill="#EAA58B" fill-opacity="1.000000" fill-rule="nonzero"/>
	<path id="Vector" d="M307.96 226.84L285.89 228.79L288.19 237.66L274.07 245.19L291.66 247.54L297.6 260.72L303.72 247.08L321.61 244.25L306.07 236.25L307.96 226.84Z" fill="#FFB494" fill-opacity="1.000000" fill-rule="nonzero"/>
	<path id="Vector" d="M202.78 289.26L208.05 272.45L223.42 274.84L211.41 264.28L220.03 254.19L204.18 259.94L201.65 255.59C197.57 260.21 195.11 265.94 193.79 273.31L196.5 273.4L202.78 289.26Z" fill="#FFB494" fill-opacity="1.000000" fill-rule="nonzero"/>
	<path id="Vector" d="M243.91 236.52C240.66 237.42 237.44 238.36 234.28 239.33L246.98 247.96L243.91 236.52Z" fill="#FFB494" fill-opacity="1.000000" fill-rule="nonzero"/>
	<path id="Vector" d="M222.96 314.24L216.23 300.31L212.87 315.68L200.38 314.72L211.91 324.81L204.7 341.62L217.21 329.96L227.57 341.91L224.4 323.85L234.96 309.92L222.96 314.24Z" fill="#FFB494" fill-opacity="1.000000" fill-rule="nonzero"/>
	<path id="Vector" d="M194.44 419.8C200.79 418.05 213.19 413.54 210.95 408.61C208.86 404.01 196.74 411.96 192.61 415.5C191.56 413.59 190.23 411.84 188.66 410.34C176.12 416.72 171.71 424.45 172.37 431.56L243.91 431.56C244.72 431.56 245.5 431.24 246.08 430.66C246.65 430.09 246.98 429.3 246.98 428.49C246.98 427.68 246.65 426.9 246.08 426.32C245.5 425.74 244.72 425.42 243.91 425.42L195.58 425.42C195.4 423.51 195.02 421.63 194.44 419.8Z" fill="#30242A" fill-opacity="1.000000" fill-rule="nonzero"/>
	<path id="Vector" d="M243.91 304.49L231.54 304.32" stroke="#A15842" stroke-opacity="1.000000" stroke-width="4.000000" stroke-linecap="round"/>
	<path id="Vector" d="M253.1 234.42C240.29 237.69 226.6 241.7 216.22 246.03C194.09 255.29 190.5 270.51 192.65 306.18" stroke="#A15842" stroke-opacity="1.000000" stroke-width="4.000000" stroke-linecap="round"/>
	<path id="Vector" d="M403.94 231.62L415.71 231.62L415.71 431.56L403.94 431.56L403.94 231.62Z" fill="#FFBE21" fill-opacity="1.000000" fill-rule="evenodd"/>
	<path id="Vector" d="M415.71 234.37L403.94 234.37" stroke="#A15842" stroke-opacity="1.000000" stroke-width="4.000000"/>
	<path id="Vector" d="M245.05 81.27C238.35 80.31 222.98 87.52 222.48 101.77C221.97 116.02 234.69 120.6 236.73 121.62L266.25 117.04L268.28 84.46L245.05 81.27Z" fill="#A15842" fill-opacity="1.000000" fill-rule="nonzero"/>
	<path id="Vector" d="M320.15 22.94C320.15 35.61 309.87 45.88 297.2 45.88C284.53 45.88 274.26 35.61 274.26 22.94C274.26 10.27 284.53 0 297.2 0C309.87 0 320.15 10.27 320.15 22.94Z" fill="#A15842" fill-opacity="1.000000" fill-rule="evenodd"/>
	<path id="Vector" d="M282.32 38.72C283.72 39.36 271.94 11.41 265.93 15.77C260.27 19.89 275.22 35.44 282.32 38.72Z" fill="#30242A" fill-opacity="1.000000" fill-rule="nonzero"/>
	<path id="Vector" d="M282.97 40.43C284.26 41.96 314.31 31.45 310.15 25.38C306.17 19.55 281.69 38.89 282.97 40.43Z" fill="#30242A" fill-opacity="1.000000" fill-rule="nonzero"/>
	<path id="Vector" d="M322.87 117.29C322.87 117.29 343.04 100.48 330.05 81.75C321.78 69.81 299.31 74.56 299.31 74.56C299.85 68.01 301.63 49.11 287.43 38.74C273.22 28.36 255.2 33.82 248.63 42.01C242.06 50.2 243.71 65.51 241.53 76.43C239.35 87.36 240.8 94.79 247.54 98.28C253.66 101.46 260.87 99.54 260.87 99.54L260.1 111.07C260.1 111.07 246.21 111.59 237.7 114.67C217.19 122.1 181.16 173.01 181.16 173.01C158.58 172.06 137.45 171.1 137.45 171.1L148.5 203.77C148.5 203.77 176.35 212.89 196.53 207.6C217 202.24 236.4 173.49 236.4 173.49L243.11 192.71L231.58 224.89L331.97 224.89L315.16 195.11C318.07 168.69 322.87 117.29 322.87 117.29Z" fill="#EAA58B" fill-opacity="1.000000" fill-rule="nonzero"/>
	<path id="Vector" d="M290.61 109.87L264.26 157.64L253.49 111.55C248.75 112.03 242.44 112.96 237.75 114.65C217.19 122.1 181.16 173.01 181.16 173.01C158.58 172.06 137.45 171.1 137.45 171.1L148.5 203.77C148.5 203.77 176.35 212.89 196.53 207.6C217 202.24 236.4 173.49 236.4 173.49L243.11 192.71L231.58 224.89L331.97 224.89L315.16 195.11C318.03 168.69 322.82 117.29 322.82 117.29C318.38 114.58 313.51 112.64 308.42 111.54C302.68 110.25 296.38 111.02 290.61 109.87Z" fill="#3546AB" fill-opacity="1.000000" fill-rule="nonzero"/>
	<path id="Vector" d="M154.18 221.53L237.37 221.53L218.45 161.79C217.9 160.03 216.79 158.49 215.31 157.4C213.82 156.31 212.02 155.72 210.17 155.72L139.87 155.72C138.5 155.72 137.15 156.04 135.93 156.66C134.72 157.28 133.66 158.17 132.85 159.28C132.05 160.38 131.51 161.66 131.29 163C131.07 164.35 131.17 165.73 131.58 167.04L147.22 216.44C147.69 217.92 148.61 219.21 149.87 220.12C151.12 221.04 152.63 221.53 154.18 221.53Z" fill="#30242A" fill-opacity="1.000000" fill-rule="nonzero"/>
	<path id="Vector" d="M166.57 182.75C168.78 179.73 178.8 187.7 179.54 188.36C179.92 187.7 185.13 179.73 188.96 182.75C192.28 185.36 184.98 197.05 183.04 200.02C182.96 200.11 182.86 200.19 182.75 200.24C182.64 200.29 182.52 200.31 182.4 200.31C182.28 200.31 182.16 200.29 182.04 200.24C181.93 200.19 181.83 200.11 181.75 200.02C178.21 197.05 164.66 185.36 166.57 182.75Z" fill="#A15842" fill-opacity="1.000000" fill-rule="nonzero"/>
	<path id="Vector" d="M178.78 179.66C179.58 182.22 179.55 184.51 178.71 184.77C177.87 185.03 176.55 183.17 175.75 180.61C174.96 178.05 174.99 175.76 175.82 175.5C176.66 175.24 177.98 177.11 178.78 179.66Z" fill="#A15842" fill-opacity="1.000000" fill-rule="evenodd"/>
	<path id="Vector" d="M285.67 214.81C285.91 215.58 285.97 216.4 285.84 217.2C285.7 217.99 285.38 218.75 284.91 219.4C284.43 220.05 283.8 220.59 283.08 220.95C282.36 221.32 281.56 221.51 280.75 221.51L154.18 221.51C152.63 221.51 151.12 221.02 149.87 220.1C148.61 219.19 147.69 217.9 147.22 216.42L146.7 214.79L285.67 214.81Z" fill="#30242A" fill-opacity="1.000000" fill-rule="nonzero"/>
	<path id="Vector" d="M65.14 221.53L435.98 221.53L435.98 233.54L65.14 233.54L65.14 221.53Z" fill="#FFBE21" fill-opacity="1.000000" fill-rule="evenodd"/>
	<path id="Vector" d="M361.97 287.33L369.67 257.21L324.74 257.21C314.74 257.21 305.01 260.54 297.1 266.68C289.2 272.82 283.56 281.42 281.08 291.11L275.86 311.52L330.82 311.52C337.96 311.52 344.9 309.14 350.54 304.76C356.18 300.38 360.2 294.25 361.97 287.33Z" fill="#FFB494" fill-opacity="1.000000" fill-rule="nonzero"/>
	<path id="Vector" d="M276.92 303.62L275.15 311.13" stroke="#A15842" stroke-opacity="1.000000" stroke-width="4.000000" stroke-linejoin="round" stroke-linecap="round"/>
	<path id="Vector" d="M133.44 172.83C127.85 175.62 125.06 180.28 125.06 183.54C125.06 188.3 129.91 189.19 129.91 189.19C129.91 189.19 126.29 194.88 132.58 197.55C132.58 197.55 132.58 203.4 138.44 203.4C138.44 203.4 137.66 207.97 143.77 208.4C149.89 208.83 156.17 205.64 156.71 203.57C157.32 201.14 155.67 199.1 151.24 198.45C151.24 198.45 157.22 195.65 156.28 192.12C155.33 188.59 151.28 188.67 151.28 188.67C151.28 188.67 155.16 186.35 153.09 182.92C151.02 179.5 147.06 180.69 147.06 180.69C147.06 180.69 148.09 178.29 146.28 176.47C144.13 174.31 134.86 177.03 134.86 177.03L133.44 172.83Z" fill="#EAA58A" fill-opacity="1.000000" fill-rule="nonzero"/>
	<path id="Vector" d="M138.48 203.63C143.53 202.42 148.42 200.65 153.07 198.36" stroke="#A15842" stroke-opacity="1.000000" stroke-width="4.000000" stroke-linecap="round"/>
	<path id="Vector" d="M132.57 197.52C139.56 195.6 146.24 192.68 152.39 188.84" stroke="#A15842" stroke-opacity="1.000000" stroke-width="4.000000" stroke-linecap="round"/>
	<path id="Vector" d="M129.43 189.87C135.91 187.96 142.03 184.99 147.55 181.09" stroke="#A15842" stroke-opacity="1.000000" stroke-width="4.000000" stroke-linecap="round"/>
	<path id="Vector" d="M330.08 81.75C321.81 69.81 299.33 74.56 299.33 74.56C299.88 68.01 301.66 49.11 287.45 38.74C273.24 28.36 255.22 33.82 248.65 42.01C245.98 45.36 244.67 49.88 243.91 54.8C248.27 55.53 254.66 54.03 254.66 54.03C263.41 63.87 271.24 65.43 271.24 65.43C277.35 59.31 288.08 59.51 289.83 68.78C291.64 78.4 276.27 82.73 276.27 82.73C276.27 82.73 274.83 100.02 282.49 106.27C284.85 108.13 287.63 109.38 290.58 109.89C296.33 111.04 302.66 110.27 308.44 111.55C313.53 112.65 318.4 114.59 322.84 117.3C324.6 115.75 326.2 114.04 327.63 112.19C332.67 105.8 338.7 94.2 330.08 81.75Z" fill="#A15842" fill-opacity="1.000000" fill-rule="nonzero"/>
	<path id="Vector" d="M263.78 50.53C260.91 52.92 257.56 54.36 253.7 55.32" stroke="#EAA58B" stroke-opacity="1.000000" stroke-width="4.000000" stroke-linecap="round"/>
	<path id="Vector" d="M260.71 100.62C262.94 99.88 265.1 98.91 267.14 97.75" stroke="#A15842" stroke-opacity="1.000000" stroke-width="4.000000" stroke-linecap="round"/>
	<path id="Vector" d="M276.85 73.07L281.22 70.34" stroke="#A15842" stroke-opacity="1.000000" stroke-width="4.000000" stroke-linecap="round"/>
	<path id="Vector" d="M251.79 85.89C252.7 86.45 256.1 86.89 257.45 84.29" stroke="#A15842" stroke-opacity="1.000000" stroke-width="4.000000" stroke-linecap="round"/>
	<path id="Vector" d="M262.33 71.96C262.33 72.87 261.59 73.6 260.69 73.6C259.79 73.6 259.05 72.87 259.05 71.96C259.05 71.06 259.79 70.32 260.69 70.32C261.59 70.32 262.33 71.06 262.33 71.96Z" fill="#30242A" fill-opacity="1.000000" fill-rule="evenodd"/>
	<path id="Vector" d="M248.75 69.79C248.75 70.7 248.02 71.43 247.11 71.43C246.21 71.43 245.47 70.7 245.47 69.79C245.47 68.89 246.21 68.15 247.11 68.15C248.02 68.15 248.75 68.89 248.75 69.79Z" fill="#30242A" fill-opacity="1.000000" fill-rule="evenodd"/>
	<path id="Vector" d="M251.72 76.12C251.4 77.15 251.11 78.27 251.3 78.64C251.56 79.12 251.95 79.51 252.42 79.76" stroke="#A15842" stroke-opacity="1.000000" stroke-width="4.000000" stroke-linecap="round"/>
	<path id="Vector" d="M284.65 83.38C284.65 86.55 282.08 89.12 278.91 89.12C275.74 89.12 273.17 86.55 273.17 83.38C273.17 80.21 275.74 77.64 278.91 77.64C282.08 77.64 284.65 80.21 284.65 83.38Z" fill="#F5EBDD" fill-opacity="1.000000" fill-rule="evenodd"/>
	<path id="Vector" d="M251.31 70.71C250.31 75.82 245.78 79.23 241.19 78.33C236.6 77.44 233.68 72.58 234.67 67.48C235.66 62.37 240.19 58.96 244.79 59.86C249.38 60.75 252.3 65.61 251.31 70.71Z" stroke="#30242A" stroke-opacity="1.000000" stroke-width="4.000000"/>
	<path id="Vector" d="M272.12 73.27C271.12 78.37 266.6 81.78 262 80.89C257.41 79.99 254.49 75.13 255.48 70.03C256.48 64.93 261 61.51 265.6 62.41C270.19 63.3 273.11 68.16 272.12 73.27Z" stroke="#30242A" stroke-opacity="1.000000" stroke-width="4.000000"/>
	<path id="Vector" d="M251.7 69.94L255.01 70.3" stroke="#30242A" stroke-opacity="1.000000" stroke-width="4.000000" stroke-linecap="round"/>
	<path id="Vector" d="M300.43 75.2L299.47 81.33" stroke="#30242A" stroke-opacity="1.000000" stroke-width="4.000000" stroke-linecap="round"/>
	<path id="Vector" d="M231.12 161.01L235.76 174.5" stroke="#30242A" stroke-opacity="1.000000" stroke-width="4.000000" stroke-linejoin="round" stroke-linecap="round"/>
	<path id="Vector" d="M255.62 191.75L243.43 191.75" stroke="#30242A" stroke-opacity="1.000000" stroke-width="4.000000" stroke-linejoin="round" stroke-linecap="round"/>
	<path id="Vector" d="M265.23 157.16L269.07 175.9L269.07 193.19" stroke="#30242A" stroke-opacity="1.000000" stroke-width="4.000000" stroke-linejoin="round" stroke-linecap="round"/>
	<path id="Vector" d="M239.68 114.24L246.97 130.74L238.33 129.79L269.07 175.9" stroke="#30242A" stroke-opacity="1.000000" stroke-width="4.000000" stroke-linejoin="round" stroke-linecap="round"/>
	<path id="Vector" d="M310.75 112.27L298.37 129.79L309.9 128.82L267.63 166.29" stroke="#30242A" stroke-opacity="1.000000" stroke-width="4.000000" stroke-linejoin="round" stroke-linecap="round"/>
	<path id="Vector" d="M317.19 170.99L307.98 158.13" stroke="#30242A" stroke-opacity="1.000000" stroke-width="4.000000" stroke-linejoin="round" stroke-linecap="round"/>
	<path id="Vector" d="M327.85 218.41C322.83 216.74 313.83 213.51 308.41 210.27" stroke="#30242A" stroke-opacity="1.000000" stroke-width="4.000000" stroke-linejoin="round" stroke-linecap="round"/>
	<path id="Vector" d="M198.94 89.8C198.94 95.01 194.72 99.23 189.52 99.23C184.31 99.23 180.1 95.01 180.1 89.8C180.1 84.6 184.31 80.38 189.52 80.38C194.72 80.38 198.94 84.6 198.94 89.8Z" fill="#FFB494" fill-opacity="1.000000" fill-rule="evenodd"/>
	<path id="Vector" d="M155.87 45.7L161.36 52.31C162.2 53.33 162.06 54.84 161.04 55.68L160.93 55.78C159.91 56.62 158.4 56.48 157.55 55.47L152.07 48.85C151.22 47.83 151.37 46.32 152.38 45.48L152.5 45.38C153.52 44.54 155.03 44.68 155.87 45.7Z" fill="#3546AB" fill-opacity="1.000000" fill-rule="evenodd"/>
	<path id="Vector" d="M171.23 60.35L165.71 53.69L66.52 135.93C65.66 136.65 65.11 137.68 65.01 138.8C64.91 139.92 65.25 141.03 65.97 141.9L66.08 142.03C66.43 142.46 66.87 142.82 67.36 143.08C67.85 143.34 68.39 143.5 68.94 143.55C69.5 143.6 70.06 143.54 70.59 143.38C71.12 143.21 71.61 142.94 72.04 142.59L103.05 116.87L103.05 207.12L111.71 207.12L111.71 109.68L171.23 60.35Z" fill="#3EC1F3" fill-opacity="1.000000" fill-rule="nonzero"/>
	<path id="Vector" d="M155.24 62.26L158 65.62C158.97 66.78 159.7 68.12 160.16 69.55" stroke="#3546AB" stroke-opacity="1.000000" stroke-width="4.000000"/>
	<path id="Vector" d="M118.67 107.58C118.67 113.81 113.61 118.87 107.38 118.87C101.14 118.87 96.09 113.81 96.09 107.58C96.09 101.34 101.14 96.29 107.38 96.29C113.61 96.29 118.67 101.34 118.67 107.58Z" fill="#3546AB" fill-opacity="1.000000" fill-rule="evenodd"/>
	<path id="Vector" d="M111.72 107.58C111.72 109.97 109.77 111.92 107.38 111.92C104.98 111.92 103.04 109.97 103.04 107.58C103.04 105.18 104.98 103.24 107.38 103.24C109.77 103.24 111.72 105.18 111.72 107.58Z" fill="#3EC1F3" fill-opacity="1.000000" fill-rule="evenodd"/>
	<path id="Vector" d="M197.25 84.45L182.81 96.39" stroke="#A15842" stroke-opacity="1.000000" stroke-width="4.000000"/>
	<path id="Vector" d="M178.54 59.14C175.51 58.78 172.72 57.27 170.77 54.92L166.94 50.28C165.59 48.65 163.64 47.63 161.53 47.43C159.42 47.23 157.32 47.88 155.69 49.23C154.88 49.9 154.21 50.73 153.72 51.65C153.23 52.58 152.93 53.6 152.83 54.64C152.73 55.69 152.84 56.74 153.15 57.74C153.46 58.75 153.97 59.68 154.64 60.49L158.47 65.13C160.41 67.48 161.38 70.48 161.17 73.52L160.21 87.53C159.73 94.38 161.47 101.21 165.17 107L166.4 108.91L212.35 70.8L210.7 69.25C205.7 64.55 199.32 61.57 192.5 60.77L178.54 59.14Z" fill="#3EC1F3" fill-opacity="1.000000" fill-rule="nonzero"/>
	<path id="Vector" d="M111.71 207.12L103.05 207.12L90.26 210.61C87.86 211.26 85.75 212.69 84.24 214.66C82.73 216.63 81.92 219.05 81.92 221.53L132.83 221.53C132.83 219.05 132.02 216.63 130.51 214.66C129 212.69 126.89 211.26 124.49 210.61L111.71 207.12Z" fill="#3EC1F3" fill-opacity="1.000000" fill-rule="nonzero"/>
	<path id="Vector" d="M203.63 64.02L161.58 98.78" stroke="#3546AB" stroke-opacity="1.000000" stroke-width="4.000000" stroke-linecap="round"/>
	<path id="Vector" d="M102.84 206.13L111.71 206.13" stroke="#3546AB" stroke-opacity="1.000000" stroke-width="4.000000" stroke-linecap="round"/>
	<path id="Vector" d="M83.6 215.54L130.87 215.54" stroke="#3546AB" stroke-opacity="1.000000" stroke-width="4.000000" stroke-linecap="round"/>
	<path id="Vector" d="M356.02 345.1C356.98 336.96 356.5 318.68 345.93 304.75C335.36 290.82 349.76 296.61 354.07 300.44C360.97 306.57 367.04 312.45 372.33 332.14L356.02 345.1Z" fill="#30242A" fill-opacity="1.000000" fill-rule="nonzero"/>
	<path id="Vector" d="M483.6 431.56L540 431.56L540 429.72C539.99 427.12 538.96 424.62 537.12 422.79C535.28 420.95 532.79 419.92 530.19 419.92L483.31 419.92L483.6 431.56Z" fill="#A15842" fill-opacity="1.000000" fill-rule="nonzero"/>
	<path id="Vector" d="M346.04 377.72L357.94 431.56L380.04 431.56L380.04 428.21C380.04 426.05 379.18 423.97 377.65 422.44C376.13 420.91 374.06 420.05 371.9 420.04C371.9 420.04 382.94 411.76 389.67 403.59C389.67 403.59 401.2 417.64 417.53 415.24L418.71 420.98C419.33 423.97 420.95 426.65 423.31 428.57C425.67 430.5 428.62 431.56 431.67 431.56L485.23 431.56C508.99 431.56 520.68 427.93 521.35 414.41C521.37 413.89 521.28 413.38 521.1 412.89C520.92 412.41 520.64 411.97 520.28 411.6C519.92 411.23 519.49 410.93 519.02 410.73C518.54 410.53 518.03 410.42 517.52 410.42L502.56 410.42C501.95 410.42 501.34 410.29 500.78 410.02C500.22 409.75 499.74 409.37 499.35 408.89L492.98 400.99C491.1 398.65 488.58 396.9 485.73 395.95C482.88 395.01 479.81 394.9 476.9 395.64L464.1 398.91C464.1 398.91 441.42 366.31 420.87 343.67C401.23 322.05 364.29 319.72 349.74 347.87C345.06 357.09 343.75 367.65 346.04 377.72Z" fill="#A15842" fill-opacity="1.000000" fill-rule="nonzero"/>
	<path id="Vector" d="M479.95 431.56L479.95 429.72C479.95 428.43 479.7 427.15 479.2 425.97C478.71 424.78 477.99 423.7 477.08 422.79C476.17 421.88 475.09 421.15 473.9 420.66C472.71 420.17 471.43 419.92 470.15 419.92L463.62 419.92" stroke="#30242A" stroke-opacity="1.000000" stroke-width="4.000000"/>
	<path id="Vector" d="M390.56 403.98C393.91 399.99 405.35 385.3 404.53 370.93C403.66 355.55 394.45 347.39 394.45 347.39" stroke="#30242A" stroke-opacity="1.000000" stroke-width="4.000000" stroke-linecap="round"/>
	<path id="Vector" d="M414.62 394.94C414.62 394.94 415.23 406.3 416.47 414.79" stroke="#30242A" stroke-opacity="1.000000" stroke-width="4.000000" stroke-linecap="round"/>
	<path id="Vector" d="M368.51 426.64L368.51 431.08" stroke="#30242A" stroke-opacity="1.000000" stroke-width="4.000000" stroke-linecap="round"/>
	<path id="Vector" d="M373.79 426.64L373.79 431.08" stroke="#30242A" stroke-opacity="1.000000" stroke-width="4.000000" stroke-linecap="round"/>
	<path id="Vector" d="M469.38 426.64L469.38 431.08" stroke="#30242A" stroke-opacity="1.000000" stroke-width="4.000000" stroke-linecap="round"/>
	<path id="Vector" d="M474.67 426.64L474.67 431.08" stroke="#30242A" stroke-opacity="1.000000" stroke-width="4.000000" stroke-linecap="round"/>
	<path id="Vector" d="M491 411.51C491 412.7 490.03 413.67 488.84 413.67C487.64 413.67 486.67 412.7 486.67 411.51C486.67 410.32 487.64 409.35 488.84 409.35C490.03 409.35 491 410.32 491 411.51Z" fill="#30242A" fill-opacity="1.000000" fill-rule="evenodd"/>
	<path id="Vector" d="M477.05 395.59L477.05 395.54L464.08 398.89L476.88 395.62L477.05 395.59Z" fill="#30242A" fill-opacity="1.000000" fill-rule="nonzero"/>
	<path id="Vector" d="M445.14 420.13C441.38 422.05 436.07 425.8 436.52 431.48L457.37 431.48L461.75 424.57C462.47 423.44 463.46 422.51 464.63 421.86C465.8 421.21 467.12 420.88 468.46 420.87L469.85 420.87L477 395.74L476.89 395.63L464.09 398.9L451.83 414.6C450.03 416.91 447.74 418.8 445.14 420.13Z" fill="#30242A" fill-opacity="1.000000" fill-rule="nonzero"/>
	<path id="Vector" d="M414.68 355.4C414.68 355.4 408.88 375.48 427.61 383.06C437.11 386.9 445 383.99 450.47 380.19C442.2 369.17 431.26 355.15 420.86 343.69C418.26 340.82 415.33 338.27 412.14 336.07C409.3 339.93 406.2 349.48 414.68 355.4Z" fill="#EAA58B" fill-opacity="1.000000" fill-rule="nonzero"/>
	<path id="Vector" d="M374.76 362.04C374.76 366.41 371.21 369.96 366.83 369.96C362.45 369.96 358.9 366.41 358.9 362.04C358.9 357.66 362.45 354.11 366.83 354.11C371.21 354.11 374.76 357.66 374.76 362.04Z" fill="#EAA58B" fill-opacity="1.000000" fill-rule="evenodd"/>
	<path id="Vector" d="M517.53 410.42L514.66 410.42C514.5 411.22 514.52 412.05 514.72 412.84C514.92 413.64 515.29 414.37 515.81 415.01C516.33 415.64 516.98 416.15 517.72 416.5C518.46 416.85 519.26 417.03 520.08 417.03C520.42 417.03 520.75 417 521.09 416.94C521.23 416.1 521.33 415.26 521.37 414.41C521.39 413.89 521.3 413.38 521.12 412.89C520.94 412.41 520.66 411.97 520.3 411.6C519.94 411.23 519.51 410.93 519.04 410.73C518.56 410.53 518.05 410.42 517.53 410.42Z" fill="#30242A" fill-opacity="1.000000" fill-rule="nonzero"/>
	<path id="Vector" d="M528.95 426.64L528.95 430.97" stroke="#30242A" stroke-opacity="1.000000" stroke-width="4.000000" stroke-linecap="round"/>
	<path id="Vector" d="M534.23 426.64L534.23 430.97" stroke="#30242A" stroke-opacity="1.000000" stroke-width="4.000000" stroke-linecap="round"/>
	<path id="Vector" d="M499.96 430.99C511.7 429.8 518.7 426.62 521.25 419.85" stroke="#30242A" stroke-opacity="1.000000" stroke-width="4.000000" stroke-linejoin="round" stroke-linecap="round"/>
	<path id="Vector" d="M308.46 178.98C302.55 178.45 296.6 178.38 290.68 178.78C282.22 179.48 270.83 181.69 266.26 183.91C261.68 186.12 244.16 193.93 248.88 196.55C253.19 198.95 262.24 195.34 262.24 195.34C262.24 195.34 253.21 203.64 251.66 207.11C250.11 210.59 255.24 212.54 255.24 212.54C256.59 218.47 262.63 215.92 262.63 215.92C266.44 224.02 287.01 206.47 287.01 206.47C291.91 206.98 296.85 206.77 301.69 205.85C301.69 205.85 304.29 207.31 308.47 209.34L308.46 178.98Z" fill="#EAA58A" fill-opacity="1.000000" fill-rule="nonzero"/>
	<path id="Vector" d="M359.85 219.61C398.28 201.36 342.58 133.15 322.87 117.29L311.82 161.97L325.75 181.18C319.65 180.13 313.81 179.4 308.46 178.98L308.46 209.34C320.65 215.27 346.28 226.08 359.85 219.61Z" fill="#3546AB" fill-opacity="1.000000" fill-rule="nonzero"/>
	<path id="Vector" d="M260.4 195.85C263.81 193.03 269.47 188.47 273.69 185.72" stroke="#A15842" stroke-opacity="1.000000" stroke-width="4.000000" stroke-linecap="round"/>
	<path id="Vector" d="M278.35 192.46C268.54 198.81 259.59 207.31 255.17 211.75" stroke="#A15842" stroke-opacity="1.000000" stroke-width="4.000000" stroke-linecap="round"/>
	<path id="Vector" d="M282.7 199.65C276 204.25 268.21 211.23 263.13 216.02" stroke="#A15842" stroke-opacity="1.000000" stroke-width="4.000000" stroke-linecap="round"/>
	<path id="Vector" d="M398 197.06C398.72 197.07 399.42 197.35 399.93 197.87C400.45 198.38 400.73 199.08 400.74 199.8L400.74 200.21C400.73 200.94 400.45 201.63 399.93 202.15C399.42 202.66 398.72 202.95 398 202.95L383.88 202.95L383.88 197.06L398 197.06ZM398 193.23L380.57 193.23C380.5 193.23 380.43 193.25 380.37 193.27C380.3 193.3 380.25 193.34 380.2 193.39C380.15 193.43 380.11 193.49 380.09 193.55C380.06 193.62 380.05 193.69 380.05 193.75L380.05 206.28C380.05 206.42 380.1 206.55 380.2 206.65C380.3 206.74 380.43 206.8 380.57 206.8L398 206.8C398.86 206.8 399.72 206.63 400.51 206.3C401.31 205.96 402.04 205.48 402.65 204.87C403.26 204.26 403.74 203.53 404.07 202.73C404.4 201.93 404.57 201.08 404.57 200.21L404.57 199.79C404.57 198.05 403.88 196.38 402.64 195.14C401.41 193.91 399.74 193.22 398 193.22L398 193.23Z" fill="#3EC1F3" fill-opacity="1.000000" fill-rule="nonzero"/>
	<path id="Vector" d="M376.92 191.17C362.65 191.17 356.05 179.79 356.05 179.79L365.63 221.53L388.18 221.53L397.76 179.79C395.54 183.3 392.46 186.18 388.81 188.17C385.17 190.16 381.07 191.19 376.92 191.17Z" fill="#3EC1F3" fill-opacity="1.000000" fill-rule="nonzero"/>
	<path id="Vector" d="M376.92 191.17C381.08 191.2 385.18 190.17 388.83 188.18C392.48 186.19 395.56 183.3 397.79 179.79L356.05 179.79C356.05 179.79 362.65 191.17 376.92 191.17Z" fill="#30242A" fill-opacity="1.000000" fill-rule="nonzero"/>
</svg>
